<?xml version="1.0" encoding="UTF-8" standalone="no"?>
<!-- Created with Inkscape (http://www.inkscape.org/) -->

<svg
   width="64"
   height="64"
   viewBox="0 0 64 64"
   version="1.1"
   id="svg5"
   xml:space="preserve"
   inkscape:export-filename="x512.png"
   inkscape:export-xdpi="768"
   inkscape:export-ydpi="768"
   inkscape:version="1.2.2 (732a01da63, 2022-12-09)"
   sodipodi:docname="Icon.svg"
   xmlns:inkscape="http://www.inkscape.org/namespaces/inkscape"
   xmlns:sodipodi="http://sodipodi.sourceforge.net/DTD/sodipodi-0.dtd"
   xmlns:xlink="http://www.w3.org/1999/xlink"
   xmlns="http://www.w3.org/2000/svg"
   xmlns:svg="http://www.w3.org/2000/svg"><sodipodi:namedview
     id="namedview7"
     pagecolor="#ffffff"
     bordercolor="#000000"
     borderopacity="0.25"
     inkscape:showpageshadow="2"
     inkscape:pageopacity="0.0"
     inkscape:pagecheckerboard="0"
     inkscape:deskcolor="#d1d1d1"
     inkscape:document-units="mm"
     showgrid="false"
     showguides="true"
     inkscape:zoom="8.8391522"
     inkscape:cx="6.5617153"
     inkscape:cy="42.990548"
     inkscape:window-width="1920"
     inkscape:window-height="1057"
     inkscape:window-x="-8"
     inkscape:window-y="-8"
     inkscape:window-maximized="1"
     inkscape:current-layer="layer1"><sodipodi:guide
       position="32,32"
       orientation="-1,0"
       id="guide111"
       inkscape:locked="false"
       inkscape:label=""
       inkscape:color="rgb(0,134,229)" /><sodipodi:guide
       position="32,32"
       orientation="0,1"
       id="guide113"
       inkscape:locked="false"
       inkscape:label=""
       inkscape:color="rgb(0,134,229)" /></sodipodi:namedview><defs
     id="defs2"><linearGradient
       inkscape:collect="always"
       id="linearGradient4410"><stop
         style="stop-color:#f3cf5e;stop-opacity:1;"
         offset="0"
         id="stop4406" /><stop
         style="stop-color:#7e5430;stop-opacity:1;"
         offset="1"
         id="stop4408" /></linearGradient><linearGradient
       inkscape:collect="always"
       id="linearGradient2921"><stop
         style="stop-color:#144159;stop-opacity:1;"
         offset="0"
         id="stop2919" /><stop
         style="stop-color:#012136;stop-opacity:1;"
         offset="1"
         id="stop2917" /></linearGradient><radialGradient
       inkscape:collect="always"
       xlink:href="#linearGradient2921"
       id="radialGradient2925"
       cx="37.656342"
       cy="53.982586"
       fx="37.656342"
       fy="53.982586"
       r="27.998995"
       gradientUnits="userSpaceOnUse"
       gradientTransform="matrix(1.3923555,-0.3071555,0.30591746,1.3867432,-28.33047,-5.4826524)" /><radialGradient
       inkscape:collect="always"
       xlink:href="#linearGradient4410"
       id="radialGradient5866"
       cx="22.567842"
       cy="68.223183"
       fx="22.567842"
       fy="68.223183"
       r="28.498995"
       gradientUnits="userSpaceOnUse"
       gradientTransform="matrix(-2.5950371,-0.07168258,0.06119417,-2.2153438,86.632441,165.65267)" /><linearGradient
       inkscape:collect="always"
       xlink:href="#linearGradient4410"
       id="linearGradient7361"
       x1="1.9999992"
       y1="12"
       x2="22.000002"
       y2="12"
       gradientUnits="userSpaceOnUse" /><linearGradient
       inkscape:collect="always"
       xlink:href="#linearGradient4410"
       id="linearGradient7459"
       gradientUnits="userSpaceOnUse"
       x1="14.557764"
       y1="-4.1780219"
       x2="10.573566"
       y2="26.028494"
       gradientTransform="matrix(2,0,0,2,-12,-12)" /><filter
       style="color-interpolation-filters:sRGB;"
       inkscape:label="Drop Shadow"
       id="filter8314"
       x="-0.083046744"
       y="-0.053333334"
       width="1.1310467"
       height="1.1542611"><feFlood
         flood-opacity="0.498039"
         flood-color="rgb(0,0,0)"
         result="flood"
         id="feFlood8304" /><feComposite
         in="flood"
         in2="SourceGraphic"
         operator="in"
         result="composite1"
         id="feComposite8306" /><feGaussianBlur
         in="composite1"
         stdDeviation="0.8"
         result="blur"
         id="feGaussianBlur8308" /><feOffset
         dx="-1.40187"
         dy="1.7134"
         result="offset"
         id="feOffset8310" /><feComposite
         in="SourceGraphic"
         in2="offset"
         operator="over"
         result="composite2"
         id="feComposite8312" /></filter><filter
       style="color-interpolation-filters:sRGB;"
       inkscape:label="Drop Shadow"
       id="filter9001"
       x="-0.08750314"
       y="-0.080360026"
       width="1.1678632"
       height="1.1750063"><feFlood
         flood-opacity="0.498039"
         flood-color="rgb(0,0,0)"
         result="flood"
         id="feFlood8991" /><feComposite
         in="flood"
         in2="SourceGraphic"
         operator="in"
         result="composite1"
         id="feComposite8993" /><feGaussianBlur
         in="composite1"
         stdDeviation="1"
         result="blur"
         id="feGaussianBlur8995" /><feOffset
         dx="-0.4"
         dy="0.8"
         result="offset"
         id="feOffset8997" /><feComposite
         in="SourceGraphic"
         in2="offset"
         operator="over"
         result="composite2"
         id="feComposite8999" /></filter></defs><g
     inkscape:label="Слой 1"
     inkscape:groupmode="layer"
     id="layer1"><circle
       style="fill:url(#radialGradient2925);fill-opacity:1;stroke:url(#radialGradient5866);stroke-width:4.2;stroke-dasharray:none;paint-order:markers stroke fill;stroke-miterlimit:4;filter:url(#filter9001)"
       id="path115"
       cx="31.903513"
       cy="31.903513"
       r="27.998995" /><g
       style="fill:url(#linearGradient7361);stroke:none;stroke-opacity:1;fill-opacity:1.0"
       id="g6966"
       transform="translate(19.79038,19.677246)"><path
         d="M -6,-4.5 A 1.5,1.5 0 0 1 -4.5,-6 h 33 a 1.5,1.5 0 0 1 0,3 H 26.416 L 31.89,10.434 A 1.5,1.5 0 0 1 32,11 7,7 0 1 1 18,11 1.5,1.5 0 0 1 18.11,10.434 L 23.584,-3 H 13.5 v 24 h 8 a 4.5,4.5 0 0 1 0,9 H 2.506 a 4.5,4.5 0 0 1 0,-9 H 10.5 V -3 H 0.416 L 5.89,10.434 A 1.5,1.5 0 0 1 6,11 7,7 0 1 1 -8,11 1.5,1.5 0 0 1 -7.89,10.434 L -2.416,-3 H -4.5 A 1.5,1.5 0 0 1 -6,-4.5 Z m 7.006,30 c 0,0.828 0.672,1.5 1.5,1.5 H 21.5 a 1.5,1.5 0 0 0 0,-3 H 2.506 a 1.5,1.5 0 0 0 -1.5,1.5 z m 1.704,-13 h -7.42 a 4,4 0 0 0 7.42,0 z M 2.27,9.5 -1,1.476 -4.27,9.5 Z M 25,15 a 4,4 0 0 0 3.71,-2.5 H 21.29 A 4,4 0 0 0 25,15 Z M 21.73,9.5 h 6.54 L 25,1.476 Z"
         fill="#ffffff"
         id="path6957"
         style="fill:url(#linearGradient7459);fill-opacity:1;stroke:none;stroke-width:2;stroke-opacity:1;filter:url(#filter8314)" /></g></g></svg>
